PathFileType  4	(X/Y/Z) C:\Users\antoi\Documents\MyRepositories\mobilecap\ResultsAnalysis
DataRate	CameraRate	NumFrames	NumMarkers	Units	OrigDataRate	OrigDataStartFrame	OrigNumFrames
100.0	100.0	4	51	mm	100.0	338	1351
Frame#	Time	r_knee			r_shank_antsup			r_ankle			r_calc			r_5meta			r_toe			L_knee			L_shank_antsup			L_ankle			L_calc			L_5meta			L_toe			r_sh2			r_sh3			r_sh4			L_sh2			L_sh3			r_thigh1			r_thigh2			r_thigh3			r_thigh4			r_thigh5			L_thigh1			L_thigh2			L_thigh3			L_thigh4			r.ASIS			r.PSIS			L.ASIS			L.PSIS			C7			R_Shoulder			L_Shoulder			R_Sternum			L_Sternum			R_humerus			R_elbow_med			R_elbow_lat			R_forearm			R_wrist_radius			R_wrist_ulna			L_humerus			L_elbow_med			L_elbow_lat			L_forearm			L_wrist_radius			L_wrist_ulna			R_HJC			L_HJC			R_HJC_reg			L_HJC_reg			
		X1	Y1	Z1	X2	Y2	Z2	X3	Y3	Z3	X4	Y4	Z4	X5	Y5	Z5	X6	Y6	Z6	X7	Y7	Z7	X8	Y8	Z8	X9	Y9	Z9	X10	Y10	Z10	X11	Y11	Z11	X12	Y12	Z12	X13	Y13	Z13	X14	Y14	Z14	X15	Y15	Z15	X16	Y16	Z16	X17	Y17	Z17	X18	Y18	Z18	X19	Y19	Z19	X20	Y20	Z20	X21	Y21	Z21	X22	Y22	Z22	X23	Y23	Z23	X24	Y24	Z24	X25	Y25	Z25	X26	Y26	Z26	X27	Y27	Z27	X28	Y28	Z28	X29	Y29	Z29	X30	Y30	Z30	X31	Y31	Z31	X32	Y32	Z32	X33	Y33	Z33	X34	Y34	Z34	X35	Y35	Z35	X36	Y36	Z36	X37	Y37	Z37	X38	Y38	Z38	X39	Y39	Z39	X40	Y40	Z40	X41	Y41	Z41	X42	Y42	Z42	X43	Y43	Z43	X44	Y44	Z44	X45	Y45	Z45	X46	Y46	Z46	X47	Y47	Z47	X48	Y48	Z48	X49	Y49	Z49	X50	Y50	Z50	X51	Y51	Z51	

338	3.37000000	-123.62935	503.26089	-358.44292	-96.75939	397.33440	-375.59582	-286.38462	118.26736	-437.92304	-365.54783	73.23668	-499.67320	-189.22509	46.79633	-376.48553	-120.86205	73.36173	-429.47379	-126.91798	542.70585	-799.81116	-143.18127	464.94437	-834.02237	-275.16934	146.07053	-830.43830	-354.23436	95.67776	-771.04988	-183.55480	55.48565	-889.91166	-112.32875	76.39762	-838.29133	-153.05740	298.44435	-365.25902	-152.51624	431.82743	-337.78746	-223.63251	340.17186	-344.97198	-224.65605	493.55673	-807.81843	-255.39046	376.11716	-824.56365	-150.90635	832.10234	-342.08761	-108.89198	731.14817	-345.00723	-147.89391	686.08201	-315.95006	-252.33217	785.13525	-333.51356	-200.62002	681.83568	-333.69443	-152.41756	829.82409	-747.63822	-97.17806	702.81240	-769.28259	-253.80922	788.59864	-763.39386	-203.94826	662.80764	-786.12049	-179.91849	1023.69523	-400.59167	-364.16822	1037.42988	-458.74150	-193.84442	1028.19615	-648.78983	-373.65668	1040.09263	-568.62422	-185.73777	1568.29469	-502.20271	-114.50198	1491.72881	-341.58241	-149.27592	1508.82120	-677.63471	-74.01497	1462.73997	-485.69891	-80.39205	1463.62340	-539.26279	-117.03065	1334.03439	-278.27893	-204.73356	1135.54359	-310.20971	-185.71054	1153.79219	-229.55158	-104.78390	999.63791	-207.21045	-48.29429	920.21790	-215.40461	-90.53606	916.08732	-195.11104	-180.09506	1392.59539	-762.74184	-210.76565	1148.92895	-730.06161	-205.26360	1171.92280	-808.47241	-153.16544	1123.23322	-842.46123	-63.21879	969.06467	-869.94951	-101.13388	955.26699	-881.67705	-259.37839	907.28225	-418.23168	-276.02757	917.51864	-624.26718	-238.50953	942.10537	-432.55796	-252.62224	946.06624	-595.99760	
339	3.38000000	-119.37976	500.66569	-357.46880	-93.32907	394.85163	-374.64024	-286.18473	118.17882	-437.88496	-365.49563	73.27755	-499.62708	-189.20799	46.72791	-376.44377	-120.84825	73.28354	-429.47020	-122.54338	541.99646	-799.47620	-138.96406	464.71268	-833.89879	-274.32775	146.98567	-830.40461	-353.69986	97.13147	-770.76612	-183.38287	55.68159	-889.67338	-112.01666	76.34431	-838.28798	-150.80510	296.94656	-364.30856	-148.59812	429.93593	-336.55501	-220.63674	339.13154	-344.06910	-220.20685	493.86646	-807.29182	-252.42781	376.67216	-824.18270	-152.09506	828.92849	-340.33863	-108.47850	728.65638	-343.44102	-146.64228	682.85385	-314.62741	-252.88355	780.03672	-331.95677	-199.38265	677.62498	-332.36187	-153.11964	827.98608	-746.05004	-95.50705	702.10277	-768.13280	-253.60249	785.25560	-762.90421	-201.48984	660.36925	-785.80153	-182.97481	1018.46375	-398.50720	-367.23507	1032.37016	-456.64758	-197.08438	1023.42555	-646.73687	-376.80169	1035.50956	-566.54701	-183.10395	1562.26100	-500.01147	-112.26728	1484.69921	-339.71595	-147.21223	1502.74222	-675.56714	-72.28263	1455.64936	-483.80623	-78.73515	1456.58969	-537.25857	-114.70967	1327.76248	-275.73361	-201.66041	1128.76804	-306.16169	-182.37591	1147.64736	-225.59900	-99.53544	994.44161	-203.02888	-42.01303	915.75273	-211.16464	-84.12861	911.13284	-190.81346	-178.05847	1387.40825	-761.15820	-208.74870	1143.16283	-730.32579	-203.27015	1166.83816	-808.33005	-150.30676	1119.00790	-842.60354	-57.83560	966.45866	-870.51213	-95.45672	952.03422	-882.23645	-262.60878	902.13287	-416.43056	-279.32329	912.83154	-622.43758	-241.55094	936.66423	-430.80843	-255.77830	941.33357	-594.25056	
340	3.39000000	-114.89630	498.30140	-356.35485	-89.70429	392.34181	-373.89603	-285.94325	118.11276	-437.86616	-365.42486	73.32279	-499.64917	-189.19390	46.71075	-376.45820	-120.77734	73.23013	-429.47126	-118.25224	541.21614	-799.15785	-134.90420	464.28018	-833.59129	-273.54898	147.83873	-830.17396	-353.25652	98.62174	-770.28505	-183.26729	55.93947	-889.41158	-111.81852	76.28945	-838.18702	-148.28152	295.56579	-363.77231	-144.53126	427.91749	-335.65753	-217.47625	337.93401	-343.29593	-215.82215	494.10990	-806.77411	-249.91774	376.99460	-823.55570	-153.37811	825.61664	-338.56107	-108.46463	725.97362	-342.02830	-145.78213	679.36992	-313.15324	-253.72210	774.53655	-330.93075	-198.32094	673.18411	-331.25128	-153.97612	825.95250	-744.25767	-93.91054	701.32633	-766.96121	-253.52379	781.62146	-762.27325	-199.04762	657.72018	-785.50386	-185.82540	1013.20232	-396.50081	-370.26871	1027.10514	-454.64023	-200.36006	1018.41894	-644.78652	-379.93049	1030.66284	-564.35962	-180.52756	1555.89926	-497.85203	-110.11397	1477.45887	-337.91820	-145.13494	1496.23571	-673.32084	-70.62108	1448.30113	-481.89752	-77.10074	1449.25089	-535.32711	-112.39992	1321.29901	-273.23873	-198.49705	1121.80805	-301.87521	-179.11226	1141.28452	-221.74766	-94.19921	989.09357	-198.82160	-35.68059	911.16056	-206.95789	-77.65699	906.06986	-186.43819	-175.96888	1381.77431	-759.45663	-206.63171	1137.20451	-730.84801	-201.15878	1161.45550	-808.41607	-147.29807	1114.54336	-842.79449	-52.35477	963.57146	-871.01445	-89.53778	948.45859	-882.57504	-265.63299	896.88822	-414.58843	-282.56809	907.88305	-620.56188	-244.42110	931.07171	-429.08678	-258.81606	936.37174	-592.55281	
341	3.40000000	-110.17271	495.88200	-355.37414	-85.94014	389.81847	-373.34535	-285.65409	118.09783	-437.74984	-365.43620	73.34890	-499.69069	-189.17124	46.74345	-376.50664	-120.72943	73.18086	-429.50366	-113.98123	540.39103	-798.99338	-131.01726	463.59453	-833.17181	-272.85029	148.59081	-829.70115	-352.84146	100.00461	-769.66619	-183.19358	56.28230	-889.10085	-111.50878	76.36961	-838.16805	-145.36668	293.59636	-363.72585	-140.29883	425.80764	-334.85502	-214.25412	336.46957	-342.60237	-211.54868	494.27009	-806.21134	-247.36792	377.34418	-822.71948	-155.00352	821.91210	-336.72374	-108.71812	722.91001	-340.61944	-145.16288	675.58340	-311.86774	-254.73673	768.70277	-330.23293	-197.41491	668.62203	-330.21625	-155.03389	823.77777	-742.47424	-92.44450	700.46773	-765.69843	-253.56354	777.70904	-761.48374	-196.56712	655.04616	-785.48512	-188.85555	1007.69332	-394.72615	-373.29434	1021.93994	-452.83272	-203.60923	1013.31197	-643.02587	-383.02340	1025.56814	-562.39902	-178.02081	1549.24244	-495.75824	-108.07211	1470.12651	-336.12272	-142.91407	1489.36423	-670.92543	-68.98781	1440.69581	-479.98629	-75.47109	1441.67733	-533.38465	-110.09098	1314.67861	-270.76771	-195.15900	1114.50067	-297.70338	-175.83159	1134.58524	-217.87409	-88.76693	983.56875	-194.67846	-29.28221	906.51219	-202.66056	-71.13216	900.85041	-182.01336	-173.87713	1375.73927	-757.78804	-204.58935	1130.90161	-731.28924	-198.89155	1155.84718	-808.84606	-144.20340	1109.82488	-842.97248	-46.52189	960.65098	-871.88695	-83.50957	944.73117	-883.07025	-268.79516	891.51084	-412.94947	-285.86782	902.80870	-618.89501	-247.61722	925.78935	-427.31267	-262.13321	931.20175	-590.78974	
